<svg width="69" height="44" viewBox="0 0 69 44" fill="none" xmlns="http://www.w3.org/2000/svg">
<g filter="url(#filter0_d)">
<path d="M66.3352 20.7057L51.3038 8.37874C50.38 7.62029 48.8379 7.5857 47.858 8.3014C46.8797 9.01651 46.8343 10.2108 47.7589 10.9686L61.2116 22L47.7589 33.0327C46.8343 33.7905 46.8797 34.9842 47.858 35.6999C48.3293 36.044 48.9313 36.2144 49.531 36.2144C50.1786 36.2144 50.8253 36.0157 51.304 35.6238L66.3353 23.2962C67.2216 22.5686 67.2216 21.4327 66.3352 20.7057Z" fill="white"/>
<path d="M38.4435 2.02156C37.1134 1.8656 35.8686 2.57246 35.6655 3.60203L28.5154 39.8282C28.3123 40.8584 29.2264 41.8213 30.5572 41.9786C30.6824 41.993 30.8058 42 30.9286 42C32.1124 42 33.1508 41.3315 33.3353 40.3981L40.4853 4.1719C40.6884 3.14164 39.7744 2.17879 38.4435 2.02156Z" fill="white"/>
<path d="M21.2419 33.0321L7.79006 22L21.2419 10.968C22.1657 10.2102 22.121 9.01582 21.1419 8.30081C20.1636 7.5857 18.6199 7.62029 17.6962 8.37815L2.66479 20.7051C1.7784 21.4321 1.7784 22.5686 2.66479 23.2957L17.6969 35.6233C18.1763 36.0163 18.8222 36.2145 19.4698 36.2145C20.0694 36.2145 20.6716 36.0434 21.1419 35.6993C22.1219 34.9842 22.1657 33.7899 21.2419 33.0321Z" fill="white"/>
</g>
<defs>
<filter id="filter0_d" x="0" y="0" width="69" height="44" filterUnits="userSpaceOnUse" color-interpolation-filters="sRGB">
<feFlood flood-opacity="0" result="BackgroundImageFix"/>
<feColorMatrix in="SourceAlpha" type="matrix" values="0 0 0 0 0 0 0 0 0 0 0 0 0 0 0 0 0 0 127 0"/>
<feOffset/>
<feGaussianBlur stdDeviation="1"/>
<feColorMatrix type="matrix" values="0 0 0 0 0 0 0 0 0 0 0 0 0 0 0 0 0 0 0.77 0"/>
<feBlend mode="normal" in2="BackgroundImageFix" result="effect1_dropShadow"/>
<feBlend mode="normal" in="SourceGraphic" in2="effect1_dropShadow" result="shape"/>
</filter>
</defs>
</svg>
