<svg width="176" height="68" viewBox="0 0 176 68" fill="none" xmlns="http://www.w3.org/2000/svg">
<g filter="url(#filter0_d)">
<rect x="4" width="168" height="60" fill="#40C9FF"/>
<path d="M32.7711 37.25C31.4211 37.25 30.1544 36.9917 28.9711 36.475C27.8044 35.9583 26.7711 35.2417 25.8711 34.325C24.9878 33.3917 24.2961 32.325 23.7961 31.125C23.2961 29.9083 23.0461 28.6083 23.0461 27.225C23.0461 25.8583 23.2878 24.575 23.7711 23.375C24.2711 22.1583 24.9628 21.0917 25.8461 20.175C26.7461 19.2583 27.7794 18.5417 28.9461 18.025C30.1294 17.4917 31.4044 17.225 32.7711 17.225C33.9711 17.225 35.0628 17.4 36.0461 17.75C37.0294 18.1 37.9794 18.6583 38.8961 19.425C39.1128 19.5917 39.2044 19.8083 39.1711 20.075C39.1378 20.325 39.0128 20.5 38.7961 20.6C38.7461 20.8 38.5878 20.925 38.3211 20.975C38.0711 21.025 37.8211 20.95 37.5711 20.75C36.9211 20.1833 36.2128 19.7667 35.4461 19.5C34.6794 19.2167 33.7878 19.075 32.7711 19.075C31.6878 19.075 30.6711 19.2917 29.7211 19.725C28.7878 20.1583 27.9628 20.75 27.2461 21.5C26.5294 22.25 25.9628 23.1167 25.5461 24.1C25.1461 25.0833 24.9461 26.125 24.9461 27.225C24.9461 28.3583 25.1461 29.4167 25.5461 30.4C25.9628 31.3833 26.5294 32.25 27.2461 33C27.9628 33.75 28.7878 34.3417 29.7211 34.775C30.6711 35.1917 31.6878 35.4 32.7711 35.4C34.5711 35.4 36.2128 34.8167 37.6961 33.65C37.9961 33.4167 38.3128 33.3833 38.6461 33.55C38.9961 33.7167 39.1711 34 39.1711 34.4C39.1711 34.6667 39.0794 34.9 38.8961 35.1C38.0461 35.8833 37.0961 36.4417 36.0461 36.775C34.9961 37.0917 33.9044 37.25 32.7711 37.25ZM52.3082 37.25C50.8582 37.25 49.5249 37 48.3082 36.5C47.0915 36 46.0332 35.3 45.1332 34.4C44.2499 33.5 43.5582 32.4417 43.0582 31.225C42.5749 30.0083 42.3332 28.675 42.3332 27.225C42.3332 25.7917 42.5749 24.4667 43.0582 23.25C43.5582 22.0333 44.2499 20.975 45.1332 20.075C46.0332 19.175 47.0915 18.475 48.3082 17.975C49.5249 17.475 50.8582 17.225 52.3082 17.225C53.7415 17.225 55.0665 17.475 56.2832 17.975C57.4999 18.475 58.5582 19.175 59.4582 20.075C60.3582 20.975 61.0499 22.0333 61.5332 23.25C62.0332 24.4667 62.2832 25.7917 62.2832 27.225C62.2832 28.675 62.0332 30.0083 61.5332 31.225C61.0499 32.4417 60.3582 33.5 59.4582 34.4C58.5582 35.3 57.4999 36 56.2832 36.5C55.0665 37 53.7415 37.25 52.3082 37.25ZM52.3082 35.4C53.4582 35.4 54.5249 35.2 55.5082 34.8C56.4915 34.3833 57.3415 33.8083 58.0582 33.075C58.7915 32.325 59.3582 31.4583 59.7582 30.475C60.1582 29.475 60.3582 28.3917 60.3582 27.225C60.3582 26.075 60.1582 25.0083 59.7582 24.025C59.3582 23.025 58.7915 22.1583 58.0582 21.425C57.3415 20.675 56.4915 20.1 55.5082 19.7C54.5249 19.2833 53.4582 19.075 52.3082 19.075C51.1415 19.075 50.0665 19.2833 49.0832 19.7C48.0999 20.1 47.2415 20.675 46.5082 21.425C45.7915 22.1583 45.2332 23.025 44.8332 24.025C44.4332 25.0083 44.2332 26.075 44.2332 27.225C44.2332 28.3917 44.4332 29.475 44.8332 30.475C45.2332 31.4583 45.7915 32.325 46.5082 33.075C47.2415 33.8083 48.0999 34.3833 49.0832 34.8C50.0665 35.2 51.1415 35.4 52.3082 35.4ZM67.2807 37C66.9973 37 66.764 36.9083 66.5807 36.725C66.3973 36.5417 66.3057 36.3083 66.3057 36.025V18.45C66.3057 18.1667 66.3973 17.9333 66.5807 17.75C66.764 17.5667 66.9973 17.475 67.2807 17.475C67.5807 17.475 67.8307 17.5917 68.0307 17.825L79.9807 33.525V18.45C79.9807 18.1667 80.0723 17.9333 80.2557 17.75C80.439 17.5667 80.6723 17.475 80.9557 17.475C81.2223 17.475 81.4473 17.5667 81.6307 17.75C81.8307 17.9333 81.9307 18.1667 81.9307 18.45V36.025C81.9307 36.3083 81.8307 36.5417 81.6307 36.725C81.4473 36.9083 81.2223 37 80.9557 37C80.639 37 80.3973 36.8917 80.2307 36.675L68.2557 20.975V36.025C68.2557 36.3083 68.1557 36.5417 67.9557 36.725C67.7723 36.9083 67.5473 37 67.2807 37ZM95.7105 37.25C94.3605 37.25 93.0939 36.9917 91.9105 36.475C90.7439 35.9583 89.7105 35.2417 88.8105 34.325C87.9272 33.3917 87.2355 32.325 86.7355 31.125C86.2355 29.9083 85.9855 28.6083 85.9855 27.225C85.9855 25.8583 86.2272 24.575 86.7105 23.375C87.2105 22.1583 87.9022 21.0917 88.7855 20.175C89.6855 19.2583 90.7189 18.5417 91.8855 18.025C93.0689 17.4917 94.3439 17.225 95.7105 17.225C96.9105 17.225 98.0022 17.4 98.9855 17.75C99.9689 18.1 100.919 18.6583 101.836 19.425C102.052 19.5917 102.144 19.8083 102.111 20.075C102.077 20.325 101.952 20.5 101.736 20.6C101.686 20.8 101.527 20.925 101.261 20.975C101.011 21.025 100.761 20.95 100.511 20.75C99.8605 20.1833 99.1522 19.7667 98.3855 19.5C97.6189 19.2167 96.7272 19.075 95.7105 19.075C94.6272 19.075 93.6105 19.2917 92.6605 19.725C91.7272 20.1583 90.9022 20.75 90.1855 21.5C89.4689 22.25 88.9022 23.1167 88.4855 24.1C88.0855 25.0833 87.8855 26.125 87.8855 27.225C87.8855 28.3583 88.0855 29.4167 88.4855 30.4C88.9022 31.3833 89.4689 32.25 90.1855 33C90.9022 33.75 91.7272 34.3417 92.6605 34.775C93.6105 35.1917 94.6272 35.4 95.7105 35.4C97.5105 35.4 99.1522 34.8167 100.636 33.65C100.936 33.4167 101.252 33.3833 101.586 33.55C101.936 33.7167 102.111 34 102.111 34.4C102.111 34.6667 102.019 34.9 101.836 35.1C100.986 35.8833 100.036 36.4417 98.9855 36.775C97.9355 37.0917 96.8439 37.25 95.7105 37.25ZM105.148 37C104.764 37 104.489 36.8417 104.323 36.525C104.156 36.2083 104.139 35.9 104.273 35.6L111.623 18.15C111.806 17.7 112.123 17.475 112.573 17.475C113.006 17.475 113.314 17.7 113.498 18.15L120.873 35.625C121.023 35.9417 120.998 36.25 120.798 36.55C120.614 36.85 120.348 37 119.998 37C119.548 37 119.239 36.8 119.073 36.4L117.423 32.35H107.723L106.048 36.4C105.964 36.6 105.839 36.75 105.673 36.85C105.523 36.95 105.348 37 105.148 37ZM108.423 30.675H116.723L112.573 20.65L108.423 30.675ZM128.274 37C127.857 37 127.557 36.7917 127.374 36.375L119.949 19C119.765 18.5333 119.749 18.1667 119.899 17.9C120.065 17.6167 120.349 17.475 120.749 17.475C121.165 17.475 121.465 17.6833 121.649 18.1L128.274 33.95L134.874 18.15C135.057 17.7 135.382 17.475 135.849 17.475C136.232 17.475 136.49 17.625 136.624 17.925C136.757 18.2083 136.749 18.5333 136.599 18.9L129.149 36.375C128.965 36.7917 128.674 37 128.274 37ZM140.669 37C140.386 37 140.153 36.9083 139.969 36.725C139.786 36.5417 139.694 36.3083 139.694 36.025V18.45C139.694 18.1667 139.786 17.9333 139.969 17.75C140.153 17.5667 140.386 17.475 140.669 17.475H152.394C152.661 17.475 152.886 17.5667 153.069 17.75C153.269 17.9167 153.369 18.1417 153.369 18.425C153.369 18.675 153.269 18.8917 153.069 19.075C152.886 19.2583 152.661 19.35 152.394 19.35H141.644V26.25H149.469C149.753 26.25 149.986 26.3417 150.169 26.525C150.353 26.7083 150.444 26.9333 150.444 27.2C150.444 27.4667 150.353 27.6917 150.169 27.875C149.986 28.0583 149.753 28.15 149.469 28.15H141.644V35.125H152.394C152.661 35.125 152.886 35.2167 153.069 35.4C153.269 35.5833 153.369 35.8 153.369 36.05C153.369 36.3333 153.269 36.5667 153.069 36.75C152.886 36.9167 152.661 37 152.394 37H140.669Z" fill="black"/>
</g>
<defs>
<filter id="filter0_d" x="0" y="0" width="176" height="68" filterUnits="userSpaceOnUse" color-interpolation-filters="sRGB">
<feFlood flood-opacity="0" result="BackgroundImageFix"/>
<feColorMatrix in="SourceAlpha" type="matrix" values="0 0 0 0 0 0 0 0 0 0 0 0 0 0 0 0 0 0 127 0"/>
<feOffset dy="4"/>
<feGaussianBlur stdDeviation="2"/>
<feColorMatrix type="matrix" values="0 0 0 0 0 0 0 0 0 0 0 0 0 0 0 0 0 0 0.25 0"/>
<feBlend mode="normal" in2="BackgroundImageFix" result="effect1_dropShadow"/>
<feBlend mode="normal" in="SourceGraphic" in2="effect1_dropShadow" result="shape"/>
</filter>
</defs>
</svg>
