<svg width="176" height="68" viewBox="0 0 176 68" fill="none" xmlns="http://www.w3.org/2000/svg">
<g filter="url(#filter0_d)">
<rect x="4" width="168" height="60" fill="#40C9FF"/>
<path d="M41.3648 37.4079C40.0148 37.4079 38.7482 37.1496 37.5648 36.6329C36.3982 36.1162 35.3648 35.3996 34.4648 34.4829C33.5815 33.5496 32.8898 32.4829 32.3898 31.2829C31.8898 30.0662 31.6398 28.7662 31.6398 27.3829C31.6398 26.0162 31.8815 24.7329 32.3648 23.5329C32.8648 22.3162 33.5565 21.2496 34.4398 20.3329C35.3398 19.4162 36.3732 18.6996 37.5398 18.1829C38.7232 17.6496 39.9982 17.3829 41.3648 17.3829C42.5648 17.3829 43.6565 17.5579 44.6398 17.9079C45.6232 18.2579 46.5732 18.8162 47.4898 19.5829C47.7065 19.7496 47.7982 19.9662 47.7648 20.2329C47.7315 20.4829 47.6065 20.6579 47.3898 20.7579C47.3398 20.9579 47.1815 21.0829 46.9148 21.1329C46.6648 21.1829 46.4148 21.1079 46.1648 20.9079C45.5148 20.3412 44.8065 19.9246 44.0398 19.6579C43.2732 19.3746 42.3815 19.2329 41.3648 19.2329C40.2815 19.2329 39.2648 19.4496 38.3148 19.8829C37.3815 20.3162 36.5565 20.9079 35.8398 21.6579C35.1232 22.4079 34.5565 23.2746 34.1398 24.2579C33.7398 25.2412 33.5398 26.2829 33.5398 27.3829C33.5398 28.5162 33.7398 29.5746 34.1398 30.5579C34.5565 31.5412 35.1232 32.4079 35.8398 33.1579C36.5565 33.9079 37.3815 34.4996 38.3148 34.9329C39.2648 35.3496 40.2815 35.5579 41.3648 35.5579C43.1648 35.5579 44.8065 34.9746 46.2898 33.8079C46.5898 33.5746 46.9065 33.5412 47.2398 33.7079C47.5898 33.8746 47.7648 34.1579 47.7648 34.5579C47.7648 34.8246 47.6732 35.0579 47.4898 35.2579C46.6398 36.0412 45.6898 36.5996 44.6398 36.9329C43.5898 37.2496 42.4982 37.4079 41.3648 37.4079ZM60.902 37.4079C59.452 37.4079 58.1186 37.1579 56.902 36.6579C55.6853 36.1579 54.627 35.4579 53.727 34.5579C52.8436 33.6579 52.152 32.5996 51.652 31.3829C51.1686 30.1662 50.927 28.8329 50.927 27.3829C50.927 25.9496 51.1686 24.6246 51.652 23.4079C52.152 22.1912 52.8436 21.1329 53.727 20.2329C54.627 19.3329 55.6853 18.6329 56.902 18.1329C58.1186 17.6329 59.452 17.3829 60.902 17.3829C62.3353 17.3829 63.6603 17.6329 64.877 18.1329C66.0936 18.6329 67.152 19.3329 68.052 20.2329C68.952 21.1329 69.6436 22.1912 70.127 23.4079C70.627 24.6246 70.877 25.9496 70.877 27.3829C70.877 28.8329 70.627 30.1662 70.127 31.3829C69.6436 32.5996 68.952 33.6579 68.052 34.5579C67.152 35.4579 66.0936 36.1579 64.877 36.6579C63.6603 37.1579 62.3353 37.4079 60.902 37.4079ZM60.902 35.5579C62.052 35.5579 63.1186 35.3579 64.102 34.9579C65.0853 34.5412 65.9353 33.9662 66.652 33.2329C67.3853 32.4829 67.952 31.6162 68.352 30.6329C68.752 29.6329 68.952 28.5496 68.952 27.3829C68.952 26.2329 68.752 25.1662 68.352 24.1829C67.952 23.1829 67.3853 22.3162 66.652 21.5829C65.9353 20.8329 65.0853 20.2579 64.102 19.8579C63.1186 19.4412 62.052 19.2329 60.902 19.2329C59.7353 19.2329 58.6603 19.4412 57.677 19.8579C56.6936 20.2579 55.8353 20.8329 55.102 21.5829C54.3853 22.3162 53.827 23.1829 53.427 24.1829C53.027 25.1662 52.827 26.2329 52.827 27.3829C52.827 28.5496 53.027 29.6329 53.427 30.6329C53.827 31.6162 54.3853 32.4829 55.102 33.2329C55.8353 33.9662 56.6936 34.5412 57.677 34.9579C58.6603 35.3579 59.7353 35.5579 60.902 35.5579ZM75.8744 37.1579C75.5911 37.1579 75.3577 37.0662 75.1744 36.8829C74.9911 36.6996 74.8994 36.4662 74.8994 36.1829V18.6079C74.8994 18.3246 74.9911 18.0912 75.1744 17.9079C75.3577 17.7246 75.5911 17.6329 75.8744 17.6329C76.1744 17.6329 76.4244 17.7496 76.6244 17.9829L88.5744 33.6829V18.6079C88.5744 18.3246 88.6661 18.0912 88.8494 17.9079C89.0327 17.7246 89.2661 17.6329 89.5494 17.6329C89.8161 17.6329 90.0411 17.7246 90.2244 17.9079C90.4244 18.0912 90.5244 18.3246 90.5244 18.6079V36.1829C90.5244 36.4662 90.4244 36.6996 90.2244 36.8829C90.0411 37.0662 89.8161 37.1579 89.5494 37.1579C89.2327 37.1579 88.9911 37.0496 88.8244 36.8329L76.8494 21.1329V36.1829C76.8494 36.4662 76.7494 36.6996 76.5494 36.8829C76.3661 37.0662 76.1411 37.1579 75.8744 37.1579ZM102.004 37.1579C101.588 37.1579 101.288 36.9496 101.104 36.5329L93.6793 19.1579C93.496 18.6912 93.4793 18.3246 93.6293 18.0579C93.796 17.7746 94.0793 17.6329 94.4793 17.6329C94.896 17.6329 95.196 17.8412 95.3793 18.2579L102.004 34.1079L108.604 18.3079C108.788 17.8579 109.113 17.6329 109.579 17.6329C109.963 17.6329 110.221 17.7829 110.354 18.0829C110.488 18.3662 110.479 18.6912 110.329 19.0579L102.879 36.5329C102.696 36.9496 102.404 37.1579 102.004 37.1579ZM114.4 37.1579C114.116 37.1579 113.883 37.0662 113.7 36.8829C113.516 36.6996 113.425 36.4662 113.425 36.1829V18.6079C113.425 18.3246 113.516 18.0912 113.7 17.9079C113.883 17.7246 114.116 17.6329 114.4 17.6329H126.125C126.391 17.6329 126.616 17.7246 126.8 17.9079C127 18.0746 127.1 18.2996 127.1 18.5829C127.1 18.8329 127 19.0496 126.8 19.2329C126.616 19.4162 126.391 19.5079 126.125 19.5079H115.375V26.4079H123.2C123.483 26.4079 123.716 26.4996 123.9 26.6829C124.083 26.8662 124.175 27.0912 124.175 27.3579C124.175 27.6246 124.083 27.8496 123.9 28.0329C123.716 28.2162 123.483 28.3079 123.2 28.3079H115.375V35.2829H126.125C126.391 35.2829 126.616 35.3746 126.8 35.5579C127 35.7412 127.1 35.9579 127.1 36.2079C127.1 36.4912 127 36.7246 126.8 36.9079C126.616 37.0746 126.391 37.1579 126.125 37.1579H114.4ZM130.334 37.1579C129.918 37.1579 129.634 36.9829 129.484 36.6329C129.351 36.2662 129.401 35.9162 129.634 35.5829L135.809 27.1579L130.034 19.1579C129.801 18.8579 129.759 18.5329 129.909 18.1829C130.059 17.8162 130.334 17.6329 130.734 17.6329C131.051 17.6329 131.301 17.7496 131.484 17.9829L137.159 25.8329L142.909 17.9829C143.093 17.7496 143.343 17.6329 143.659 17.6329C144.059 17.6329 144.326 17.8162 144.459 18.1829C144.609 18.5496 144.584 18.8746 144.384 19.1579L138.484 27.1829L144.559 35.5829C144.793 35.8829 144.834 36.2246 144.684 36.6079C144.551 36.9746 144.276 37.1579 143.859 37.1579C143.543 37.1579 143.293 37.0412 143.109 36.8079L137.134 28.5329L131.034 36.8579C130.851 37.0579 130.618 37.1579 130.334 37.1579Z" fill="black"/>
</g>
<defs>
<filter id="filter0_d" x="0" y="0" width="176" height="68" filterUnits="userSpaceOnUse" color-interpolation-filters="sRGB">
<feFlood flood-opacity="0" result="BackgroundImageFix"/>
<feColorMatrix in="SourceAlpha" type="matrix" values="0 0 0 0 0 0 0 0 0 0 0 0 0 0 0 0 0 0 127 0"/>
<feOffset dy="4"/>
<feGaussianBlur stdDeviation="2"/>
<feColorMatrix type="matrix" values="0 0 0 0 0 0 0 0 0 0 0 0 0 0 0 0 0 0 0.25 0"/>
<feBlend mode="normal" in2="BackgroundImageFix" result="effect1_dropShadow"/>
<feBlend mode="normal" in="SourceGraphic" in2="effect1_dropShadow" result="shape"/>
</filter>
</defs>
</svg>
