<svg width="478" height="478" viewBox="0 0 478 478" fill="none" xmlns="http://www.w3.org/2000/svg">
<path d="M341.333 85.333H51.2C22.923 85.333 0 108.256 0 136.533V426.666C0 454.943 22.923 477.866 51.2 477.866H341.333C369.61 477.866 392.533 454.943 392.533 426.666V136.533C392.533 108.256 369.61 85.333 341.333 85.333Z" fill="#EF709B"/>
<path d="M426.667 3.30602e-08H119.467C91.343 -0.000999967 68.483 22.684 68.267 50.807C68.267 50.944 68.267 51.063 68.267 51.2H341.334C388.439 51.256 426.611 89.428 426.667 136.533V409.6C426.804 409.6 426.923 409.6 427.06 409.6C455.184 409.384 477.868 386.524 477.867 358.4V51.2C477.867 22.923 454.944 3.30602e-08 426.667 3.30602e-08Z" fill="#FA9372"/>
</svg>
