<svg width="58" height="58" viewBox="0 0 58 58" fill="none" xmlns="http://www.w3.org/2000/svg">
<g filter="url(#filter0_d)">
<path d="M50.3753 9.13273L50.366 9.02745H47.4504C45.4465 9.02745 43.6171 10.8593 43.6171 12.8607V32.456L12.2886 1.05958C11.6054 0.376533 10.7421 0 9.76922 0C8.79582 0 7.90808 0.376533 7.22488 1.05958L5.06004 3.23424C3.64277 4.64961 3.64848 6.82841 5.06627 8.2443L36.6112 39.6272H16.7626C14.7598 39.6272 12.9874 41.5052 12.9874 43.5071V46.5832C12.9874 48.5852 14.7598 50 16.7626 50H50.517C51.4873 50 52.32 49.7251 53.0064 49.0353C53.6999 48.3471 54 47.5406 54 46.5713V12.8607C54 10.8598 52.3787 9.13273 50.3753 9.13273Z" fill="black"/>
</g>
<defs>
<filter id="filter0_d" x="0" y="0" width="58" height="58" filterUnits="userSpaceOnUse" color-interpolation-filters="sRGB">
<feFlood flood-opacity="0" result="BackgroundImageFix"/>
<feColorMatrix in="SourceAlpha" type="matrix" values="0 0 0 0 0 0 0 0 0 0 0 0 0 0 0 0 0 0 127 0"/>
<feOffset dy="4"/>
<feGaussianBlur stdDeviation="2"/>
<feColorMatrix type="matrix" values="0 0 0 0 0 0 0 0 0 0 0 0 0 0 0 0 0 0 0.25 0"/>
<feBlend mode="normal" in2="BackgroundImageFix" result="effect1_dropShadow"/>
<feBlend mode="normal" in="SourceGraphic" in2="effect1_dropShadow" result="shape"/>
</filter>
</defs>
</svg>
