<svg width="58" height="58" viewBox="0 0 58 58" fill="none" xmlns="http://www.w3.org/2000/svg">
<g filter="url(#filter0_d)">
<path d="M52.9411 3.23351L50.7705 1.05957C50.0894 0.375567 49.179 0 48.2087 0C47.2394 0 46.4252 0.375469 45.7436 1.05957L14.5089 32.4537V12.8593C14.5089 10.8576 12.6912 9.03044 10.6936 9.03044H7.62285C5.62617 9.03044 4.00107 10.7569 4.00107 12.7598L4 46.5171C4.00107 47.4863 4.45439 48.4239 5.14277 49.1106C5.83008 49.804 6.74561 50 7.78067 50H41.2859C42.25 50 43.2267 49.7267 43.9124 49.0391C44.5982 48.3514 45.0444 47.5455 45.0444 46.5789V43.503C45.0444 42.5374 44.5988 41.5034 43.9124 40.8167C43.2267 40.1296 42.2505 39.6281 41.2859 39.6281H21.4988L52.941 8.24486C54.353 6.82997 54.353 4.64879 52.9411 3.23351Z" fill="black"/>
</g>
<defs>
<filter id="filter0_d" x="0" y="0" width="58" height="58" filterUnits="userSpaceOnUse" color-interpolation-filters="sRGB">
<feFlood flood-opacity="0" result="BackgroundImageFix"/>
<feColorMatrix in="SourceAlpha" type="matrix" values="0 0 0 0 0 0 0 0 0 0 0 0 0 0 0 0 0 0 127 0"/>
<feOffset dy="4"/>
<feGaussianBlur stdDeviation="2"/>
<feColorMatrix type="matrix" values="0 0 0 0 0 0 0 0 0 0 0 0 0 0 0 0 0 0 0.25 0"/>
<feBlend mode="normal" in2="BackgroundImageFix" result="effect1_dropShadow"/>
<feBlend mode="normal" in="SourceGraphic" in2="effect1_dropShadow" result="shape"/>
</filter>
</defs>
</svg>
