<svg width="176" height="68" viewBox="0 0 176 68" fill="none" xmlns="http://www.w3.org/2000/svg">
<g filter="url(#filter0_d)">
<rect x="4" width="168" height="60" fill="black"/>
<path d="M58.2233 37C57.9567 37 57.7233 36.9083 57.5233 36.725C57.34 36.525 57.2483 36.2917 57.2483 36.025V18.45C57.2483 18.1667 57.34 17.9333 57.5233 17.75C57.7067 17.5667 57.94 17.475 58.2233 17.475H69.9483C70.2317 17.475 70.465 17.5667 70.6483 17.75C70.8317 17.9167 70.9233 18.1417 70.9233 18.425C70.9233 18.675 70.8317 18.8917 70.6483 19.075C70.465 19.2583 70.2317 19.35 69.9483 19.35H59.1983V26.25H67.0233C67.3067 26.25 67.54 26.3417 67.7233 26.525C67.9067 26.7083 67.9983 26.9333 67.9983 27.2C67.9983 27.4667 67.9067 27.6917 67.7233 27.875C67.54 28.0583 67.3067 28.15 67.0233 28.15H59.1983V36.025C59.1983 36.2917 59.1067 36.525 58.9233 36.725C58.74 36.9083 58.5067 37 58.2233 37ZM75.3983 37C75.1317 37 74.8983 36.9083 74.6983 36.725C74.515 36.5417 74.4233 36.3083 74.4233 36.025V18.45C74.4233 18.1833 74.515 17.9583 74.6983 17.775C74.8983 17.575 75.1317 17.475 75.3983 17.475C75.665 17.475 75.89 17.575 76.0733 17.775C76.2733 17.9583 76.3733 18.1833 76.3733 18.45V35.15H86.1483C86.415 35.15 86.64 35.2417 86.8233 35.425C87.0233 35.5917 87.1233 35.8083 87.1233 36.075C87.1233 36.3417 87.0233 36.5667 86.8233 36.75C86.64 36.9167 86.415 37 86.1483 37H75.3983ZM89.1687 37C88.7853 37 88.5103 36.8417 88.3437 36.525C88.177 36.2083 88.1603 35.9 88.2937 35.6L95.6437 18.15C95.827 17.7 96.1437 17.475 96.5937 17.475C97.027 17.475 97.3353 17.7 97.5187 18.15L104.894 35.625C105.044 35.9417 105.019 36.25 104.819 36.55C104.635 36.85 104.369 37 104.019 37C103.569 37 103.26 36.8 103.094 36.4L101.444 32.35H91.7437L90.0687 36.4C89.9853 36.6 89.8603 36.75 89.6937 36.85C89.5437 36.95 89.3687 37 89.1687 37ZM92.4437 30.675H100.744L96.5937 20.65L92.4437 30.675ZM111.495 37C111.228 37 110.995 36.9083 110.795 36.725C110.611 36.525 110.52 36.2917 110.52 36.025V19.25H104.595C104.328 19.25 104.111 19.1667 103.945 19C103.778 18.8333 103.695 18.625 103.695 18.375C103.695 18.1083 103.778 17.8917 103.945 17.725C104.111 17.5583 104.328 17.475 104.595 17.475H118.42C118.686 17.475 118.903 17.5583 119.07 17.725C119.236 17.8917 119.32 18.1083 119.32 18.375C119.32 18.625 119.236 18.8333 119.07 19C118.903 19.1667 118.686 19.25 118.42 19.25H112.47V36.025C112.47 36.2917 112.378 36.525 112.195 36.725C112.011 36.9083 111.778 37 111.495 37Z" fill="#40C9FF"/>
</g>
<defs>
<filter id="filter0_d" x="0" y="0" width="176" height="68" filterUnits="userSpaceOnUse" color-interpolation-filters="sRGB">
<feFlood flood-opacity="0" result="BackgroundImageFix"/>
<feColorMatrix in="SourceAlpha" type="matrix" values="0 0 0 0 0 0 0 0 0 0 0 0 0 0 0 0 0 0 127 0"/>
<feOffset dy="4"/>
<feGaussianBlur stdDeviation="2"/>
<feColorMatrix type="matrix" values="0 0 0 0 0 0 0 0 0 0 0 0 0 0 0 0 0 0 0.25 0"/>
<feBlend mode="normal" in2="BackgroundImageFix" result="effect1_dropShadow"/>
<feBlend mode="normal" in="SourceGraphic" in2="effect1_dropShadow" result="shape"/>
</filter>
</defs>
</svg>
