<svg width="271" height="89" viewBox="0 0 271 89" fill="none" xmlns="http://www.w3.org/2000/svg">
<g filter="url(#filter0_d)">
<rect x="14.5" y="14.5" width="242" height="60" rx="30" stroke="#40C9FF" stroke-width="3"/>
</g>
<g filter="url(#filter1_d)">
<path d="M54.2309 50C53.9376 50 53.6909 49.9 53.4909 49.7C53.3043 49.5 53.2109 49.2533 53.2109 48.96V35.42C53.2109 35.1133 53.3043 34.8667 53.4909 34.68C53.6909 34.48 53.9376 34.38 54.2309 34.38C54.5509 34.38 54.8176 34.5067 55.0309 34.76L63.7509 46.36V35.42C63.7509 35.1133 63.8509 34.8667 64.0509 34.68C64.2509 34.48 64.4976 34.38 64.7909 34.38C65.0976 34.38 65.3443 34.48 65.5309 34.68C65.7176 34.8667 65.8109 35.1133 65.8109 35.42V48.96C65.8109 49.2533 65.7176 49.5 65.5309 49.7C65.3443 49.9 65.0976 50 64.7909 50C64.6576 50 64.5109 49.9733 64.3509 49.92C64.2043 49.8533 64.0843 49.76 63.9909 49.64L55.2709 38.04V48.96C55.2709 49.2533 55.1709 49.5 54.9709 49.7C54.7843 49.9 54.5376 50 54.2309 50ZM70.8525 50C70.5592 50 70.3125 49.9 70.1125 49.7C69.9125 49.5 69.8125 49.2533 69.8125 48.96V35.42C69.8125 35.1133 69.9125 34.8667 70.1125 34.68C70.3125 34.48 70.5592 34.38 70.8525 34.38H79.8925C80.1992 34.38 80.4458 34.4733 80.6325 34.66C80.8192 34.8333 80.9125 35.0667 80.9125 35.36C80.9125 35.64 80.8192 35.8667 80.6325 36.04C80.4458 36.2133 80.1992 36.3 79.8925 36.3H71.8925V41.16H77.6325C77.9392 41.16 78.1858 41.2533 78.3725 41.44C78.5592 41.6133 78.6525 41.84 78.6525 42.12C78.6525 42.4 78.5592 42.6333 78.3725 42.82C78.1858 42.9933 77.9392 43.08 77.6325 43.08H71.8925V48.08H79.8925C80.1992 48.08 80.4458 48.1667 80.6325 48.34C80.8192 48.5133 80.9125 48.74 80.9125 49.02C80.9125 49.3133 80.8192 49.5533 80.6325 49.74C80.4458 49.9133 80.1992 50 79.8925 50H70.8525ZM90.3564 50.32C89.0764 50.32 87.9431 50.0867 86.9564 49.62C85.9697 49.14 85.1964 48.48 84.6364 47.64C84.0897 46.8 83.8164 45.84 83.8164 44.76V35.42C83.8164 35.1133 83.9164 34.8667 84.1164 34.68C84.3164 34.48 84.5631 34.38 84.8564 34.38C85.1631 34.38 85.4097 34.48 85.5964 34.68C85.7964 34.8667 85.8964 35.1133 85.8964 35.42V44.76C85.8964 45.48 86.0831 46.12 86.4564 46.68C86.8431 47.2267 87.3697 47.66 88.0364 47.98C88.7164 48.2867 89.4897 48.44 90.3564 48.44C91.1964 48.44 91.9364 48.2867 92.5764 47.98C93.2297 47.66 93.7364 47.2267 94.0964 46.68C94.4697 46.12 94.6564 45.48 94.6564 44.76V35.42C94.6564 35.1133 94.7564 34.8667 94.9564 34.68C95.1564 34.48 95.4031 34.38 95.6964 34.38C96.0031 34.38 96.2497 34.48 96.4364 34.68C96.6231 34.8667 96.7164 35.1133 96.7164 35.42V44.76C96.7164 45.84 96.4431 46.8 95.8964 47.64C95.3631 48.48 94.6164 49.14 93.6564 49.62C92.6964 50.0867 91.5964 50.32 90.3564 50.32ZM101.751 50C101.458 50 101.211 49.9 101.011 49.7C100.811 49.5 100.711 49.2533 100.711 48.96V35.42C100.711 35.1133 100.811 34.8667 101.011 34.68C101.211 34.48 101.458 34.38 101.751 34.38C102.151 34.38 102.458 34.5667 102.671 34.94L108.611 46.84L114.391 34.94C114.604 34.5667 114.911 34.38 115.311 34.38C115.604 34.38 115.851 34.48 116.051 34.68C116.251 34.8667 116.351 35.1133 116.351 35.42V48.96C116.351 49.2533 116.244 49.5 116.031 49.7C115.831 49.9 115.591 50 115.311 50C115.018 50 114.771 49.9 114.571 49.7C114.371 49.5 114.271 49.2533 114.271 48.96V39.02L109.431 48.88C109.204 49.2267 108.904 49.4 108.531 49.4C108.091 49.4 107.771 49.1933 107.571 48.78L102.791 39.2V48.96C102.791 49.2533 102.691 49.5 102.491 49.7C102.291 49.9 102.044 50 101.751 50ZM127.579 50.2C126.406 50.2 125.333 50.0067 124.359 49.62C123.386 49.22 122.546 48.6667 121.839 47.96C121.146 47.24 120.606 46.3933 120.219 45.42C119.833 44.4333 119.639 43.3533 119.639 42.18C119.639 41.0067 119.833 39.9333 120.219 38.96C120.606 37.9867 121.146 37.1467 121.839 36.44C122.546 35.72 123.386 35.1667 124.359 34.78C125.333 34.38 126.406 34.18 127.579 34.18C128.753 34.18 129.819 34.38 130.779 34.78C131.753 35.1667 132.593 35.72 133.299 36.44C134.006 37.1467 134.553 37.9867 134.939 38.96C135.326 39.9333 135.519 41.0067 135.519 42.18C135.519 43.3533 135.326 44.4333 134.939 45.42C134.553 46.3933 134.006 47.24 133.299 47.96C132.593 48.6667 131.753 49.22 130.779 49.62C129.819 50.0067 128.753 50.2 127.579 50.2ZM127.579 48.32C128.739 48.32 129.766 48.0533 130.659 47.52C131.553 46.9733 132.253 46.24 132.759 45.32C133.266 44.3867 133.519 43.34 133.519 42.18C133.519 41.02 133.266 39.98 132.759 39.06C132.253 38.1267 131.553 37.3933 130.659 36.86C129.766 36.3267 128.739 36.06 127.579 36.06C126.419 36.06 125.393 36.3267 124.499 36.86C123.606 37.3933 122.906 38.1267 122.399 39.06C121.893 39.98 121.639 41.02 121.639 42.18C121.639 43.34 121.893 44.3867 122.399 45.32C122.906 46.24 123.606 46.9733 124.499 47.52C125.393 48.0533 126.419 48.32 127.579 48.32ZM139.817 50C139.524 50 139.277 49.9 139.077 49.7C138.877 49.5 138.777 49.2533 138.777 48.96V35.42C138.777 35.1133 138.877 34.8667 139.077 34.68C139.277 34.48 139.524 34.38 139.817 34.38H143.417C144.417 34.38 145.304 34.5933 146.077 35.02C146.851 35.4333 147.451 36.0067 147.877 36.74C148.317 37.4733 148.537 38.3267 148.537 39.3C148.537 40.26 148.297 41.1067 147.817 41.84C147.337 42.56 146.684 43.1067 145.857 43.48L148.917 48.4C149.157 48.7867 149.191 49.1533 149.017 49.5C148.844 49.8333 148.544 50 148.117 50C147.731 50 147.431 49.8333 147.217 49.5L143.777 43.98C143.657 43.98 143.537 43.98 143.417 43.98H140.857V48.96C140.857 49.2533 140.757 49.5 140.557 49.7C140.371 49.9 140.124 50 139.817 50ZM140.857 42.06H143.417C144.324 42.06 145.071 41.8067 145.657 41.3C146.244 40.78 146.537 40.1133 146.537 39.3C146.537 38.42 146.244 37.7 145.657 37.14C145.071 36.58 144.324 36.3 143.417 36.3H140.857V42.06ZM152.454 50C152.161 50 151.914 49.9 151.714 49.7C151.514 49.5 151.414 49.2533 151.414 48.96V35.42C151.414 35.1133 151.514 34.8667 151.714 34.68C151.914 34.48 152.161 34.38 152.454 34.38H156.454C157.454 34.38 158.341 34.6 159.114 35.04C159.887 35.48 160.487 36.0933 160.914 36.88C161.354 37.6533 161.574 38.5467 161.574 39.56C161.574 40.5333 161.354 41.4 160.914 42.16C160.487 42.92 159.887 43.5133 159.114 43.94C158.341 44.3667 157.454 44.58 156.454 44.58H153.494V48.96C153.494 49.2533 153.394 49.5 153.194 49.7C153.007 49.9 152.761 50 152.454 50ZM153.494 42.66H156.454C157.361 42.66 158.107 42.3733 158.694 41.8C159.281 41.2133 159.574 40.4667 159.574 39.56C159.574 38.92 159.441 38.36 159.174 37.88C158.907 37.3867 158.541 37 158.074 36.72C157.607 36.44 157.067 36.3 156.454 36.3H153.494V42.66ZM164.915 50C164.622 50 164.375 49.9 164.175 49.7C163.975 49.5 163.875 49.2533 163.875 48.96V35.42C163.875 35.1133 163.975 34.8667 164.175 34.68C164.375 34.48 164.622 34.38 164.915 34.38C165.222 34.38 165.468 34.48 165.655 34.68C165.855 34.8667 165.955 35.1133 165.955 35.42V41.16H175.235V35.42C175.235 35.1133 175.335 34.8667 175.535 34.68C175.735 34.48 175.982 34.38 176.275 34.38C176.582 34.38 176.828 34.48 177.015 34.68C177.202 34.8667 177.295 35.1133 177.295 35.42V48.96C177.295 49.2533 177.202 49.5 177.015 49.7C176.828 49.9 176.582 50 176.275 50C175.982 50 175.735 49.9 175.535 49.7C175.335 49.5 175.235 49.2533 175.235 48.96V43H165.955V48.96C165.955 49.2533 165.855 49.5 165.655 49.7C165.468 49.9 165.222 50 164.915 50ZM182.337 50C182.044 50 181.797 49.9 181.597 49.7C181.397 49.5 181.297 49.2533 181.297 48.96V35.42C181.297 35.1133 181.397 34.8667 181.597 34.68C181.797 34.48 182.044 34.38 182.337 34.38C182.644 34.38 182.89 34.48 183.077 34.68C183.277 34.8667 183.377 35.1133 183.377 35.42V48.96C183.377 49.2533 183.277 49.5 183.077 49.7C182.89 49.9 182.644 50 182.337 50ZM192.331 50.2C191.478 50.2 190.664 50.0667 189.891 49.8C189.118 49.5333 188.444 49.16 187.871 48.68C187.298 48.2 186.878 47.6467 186.611 47.02C186.478 46.74 186.478 46.48 186.611 46.24C186.758 46 186.998 45.8467 187.331 45.78C187.571 45.7267 187.804 45.7667 188.031 45.9C188.271 46.02 188.451 46.2067 188.571 46.46C188.731 46.7933 188.991 47.1 189.351 47.38C189.724 47.66 190.171 47.8867 190.691 48.06C191.211 48.2333 191.758 48.32 192.331 48.32C192.971 48.32 193.558 48.22 194.091 48.02C194.638 47.82 195.078 47.5333 195.411 47.16C195.744 46.7733 195.911 46.3 195.911 45.74C195.911 45.0333 195.631 44.4 195.071 43.84C194.524 43.28 193.618 42.9333 192.351 42.8C190.698 42.64 189.398 42.1533 188.451 41.34C187.504 40.5267 187.031 39.52 187.031 38.32C187.031 37.44 187.278 36.6933 187.771 36.08C188.264 35.4667 188.931 35 189.771 34.68C190.624 34.36 191.571 34.2 192.611 34.2C193.824 34.2 194.818 34.4467 195.591 34.94C196.364 35.4333 197.004 36.0867 197.511 36.9C197.698 37.1933 197.771 37.4733 197.731 37.74C197.704 37.9933 197.578 38.1933 197.351 38.34C197.098 38.5 196.824 38.5333 196.531 38.44C196.238 38.3467 196.018 38.1733 195.871 37.92C195.538 37.3467 195.104 36.9 194.571 36.58C194.051 36.26 193.378 36.0933 192.551 36.08C191.564 36.0667 190.738 36.2533 190.071 36.64C189.404 37.0133 189.071 37.5933 189.071 38.38C189.071 38.78 189.171 39.1667 189.371 39.54C189.584 39.9 189.964 40.2133 190.511 40.48C191.071 40.7467 191.871 40.9333 192.911 41.04C194.498 41.2 195.731 41.6867 196.611 42.5C197.504 43.3 197.951 44.36 197.951 45.68C197.951 46.44 197.791 47.1 197.471 47.66C197.164 48.22 196.744 48.6933 196.211 49.08C195.691 49.4533 195.091 49.7333 194.411 49.92C193.744 50.1067 193.051 50.2 192.331 50.2ZM202.181 50C201.887 50 201.641 49.9 201.441 49.7C201.241 49.5 201.141 49.2533 201.141 48.96V35.42C201.141 35.1133 201.241 34.8667 201.441 34.68C201.641 34.48 201.887 34.38 202.181 34.38C202.581 34.38 202.887 34.5667 203.101 34.94L209.041 46.84L214.821 34.94C215.034 34.5667 215.341 34.38 215.741 34.38C216.034 34.38 216.281 34.48 216.481 34.68C216.681 34.8667 216.781 35.1133 216.781 35.42V48.96C216.781 49.2533 216.674 49.5 216.461 49.7C216.261 49.9 216.021 50 215.741 50C215.447 50 215.201 49.9 215.001 49.7C214.801 49.5 214.701 49.2533 214.701 48.96V39.02L209.861 48.88C209.634 49.2267 209.334 49.4 208.961 49.4C208.521 49.4 208.201 49.1933 208.001 48.78L203.221 39.2V48.96C203.221 49.2533 203.121 49.5 202.921 49.7C202.721 49.9 202.474 50 202.181 50Z" fill="black"/>
</g>
<defs>
<filter id="filter0_d" x="0" y="0" width="271" height="89" filterUnits="userSpaceOnUse" color-interpolation-filters="sRGB">
<feFlood flood-opacity="0" result="BackgroundImageFix"/>
<feColorMatrix in="SourceAlpha" type="matrix" values="0 0 0 0 0 0 0 0 0 0 0 0 0 0 0 0 0 0 127 0"/>
<feMorphology radius="2" operator="dilate" in="SourceAlpha" result="effect1_dropShadow"/>
<feOffset/>
<feGaussianBlur stdDeviation="5.5"/>
<feColorMatrix type="matrix" values="0 0 0 0 0 0 0 0 0 0 0 0 0 0 0 0 0 0 0.19 0"/>
<feBlend mode="normal" in2="BackgroundImageFix" result="effect1_dropShadow"/>
<feBlend mode="normal" in="SourceGraphic" in2="effect1_dropShadow" result="shape"/>
</filter>
<filter id="filter1_d" x="49.2109" y="30.18" width="171.57" height="24.14" filterUnits="userSpaceOnUse" color-interpolation-filters="sRGB">
<feFlood flood-opacity="0" result="BackgroundImageFix"/>
<feColorMatrix in="SourceAlpha" type="matrix" values="0 0 0 0 0 0 0 0 0 0 0 0 0 0 0 0 0 0 127 0"/>
<feOffset/>
<feGaussianBlur stdDeviation="2"/>
<feColorMatrix type="matrix" values="0 0 0 0 0 0 0 0 0 0 0 0 0 0 0 0 0 0 0.3 0"/>
<feBlend mode="normal" in2="BackgroundImageFix" result="effect1_dropShadow"/>
<feBlend mode="normal" in="SourceGraphic" in2="effect1_dropShadow" result="shape"/>
</filter>
</defs>
</svg>
