<svg width="271" height="89" viewBox="0 0 271 89" fill="none" xmlns="http://www.w3.org/2000/svg">
<g filter="url(#filter0_d)">
<rect x="13" y="13" width="245" height="63" rx="31.5" fill="#40C9FF"/>
</g>
<g filter="url(#filter1_d)">
<path d="M49.4707 50.2C48.3907 50.2 47.3774 50 46.4307 49.6C45.4974 49.1867 44.6774 48.62 43.9707 47.9C43.2774 47.1667 42.7307 46.3133 42.3307 45.34C41.944 44.3667 41.7507 43.3133 41.7507 42.18C41.7507 41.06 41.944 40.02 42.3307 39.06C42.7307 38.0867 43.2774 37.24 43.9707 36.52C44.6774 35.7867 45.4974 35.2133 46.4307 34.8C47.364 34.3867 48.3774 34.18 49.4707 34.18C50.4974 34.18 51.3774 34.3133 52.1107 34.58C52.8574 34.8467 53.604 35.2867 54.3507 35.9C54.5107 36.0333 54.6174 36.16 54.6707 36.28C54.724 36.4 54.7507 36.5467 54.7507 36.72C54.7507 36.9733 54.6574 37.1867 54.4707 37.36C54.2974 37.5333 54.0774 37.6267 53.8107 37.64C53.5574 37.6533 53.3174 37.5667 53.0907 37.38C52.5974 36.9533 52.084 36.6267 51.5507 36.4C51.0307 36.1733 50.3374 36.06 49.4707 36.06C48.684 36.06 47.944 36.22 47.2507 36.54C46.5574 36.86 45.944 37.3 45.4107 37.86C44.8907 38.42 44.484 39.0733 44.1907 39.82C43.8974 40.5533 43.7507 41.34 43.7507 42.18C43.7507 43.0333 43.8974 43.8333 44.1907 44.58C44.484 45.3133 44.8907 45.96 45.4107 46.52C45.944 47.08 46.5574 47.52 47.2507 47.84C47.944 48.1467 48.684 48.3 49.4707 48.3C50.0574 48.3 50.6174 48.2133 51.1507 48.04C51.684 47.8667 52.1974 47.62 52.6907 47.3V43.74H49.9307C49.6374 43.74 49.3907 43.6533 49.1907 43.48C48.9907 43.3067 48.8907 43.0867 48.8907 42.82C48.8907 42.5533 48.9907 42.3333 49.1907 42.16C49.3907 41.9867 49.6374 41.9 49.9307 41.9H53.6707C53.9774 41.9 54.224 42 54.4107 42.2C54.5974 42.3867 54.6907 42.6333 54.6907 42.94V47.72C54.6907 47.8533 54.664 47.9867 54.6107 48.12C54.5707 48.24 54.4907 48.3533 54.3707 48.46C53.664 49.0467 52.8974 49.4867 52.0707 49.78C51.244 50.06 50.3774 50.2 49.4707 50.2ZM59.0376 50C58.7442 50 58.4976 49.9 58.2976 49.7C58.1109 49.5 58.0176 49.2533 58.0176 48.96V35.42C58.0176 35.1267 58.1176 34.88 58.3176 34.68C58.5176 34.48 58.7576 34.38 59.0376 34.38C59.3309 34.38 59.5776 34.48 59.7776 34.68C59.9776 34.88 60.0776 35.1267 60.0776 35.42V47.92H67.3176C67.6109 47.92 67.8576 48.02 68.0576 48.22C68.2576 48.42 68.3576 48.6667 68.3576 48.96C68.3576 49.2533 68.2576 49.5 68.0576 49.7C67.8576 49.9 67.6109 50 67.3176 50H59.0376ZM70.2296 50C69.8563 50 69.5696 49.84 69.3696 49.52C69.1696 49.2 69.1496 48.86 69.3096 48.5L74.9296 35.08C75.1296 34.6133 75.4563 34.38 75.9096 34.38C76.3896 34.38 76.7163 34.6133 76.8896 35.08L82.5296 48.54C82.6763 48.9133 82.6496 49.2533 82.4496 49.56C82.2629 49.8533 81.9763 50 81.5896 50C81.3896 50 81.1963 49.9467 81.0096 49.84C80.8363 49.72 80.7096 49.56 80.6296 49.36L79.5096 46.56H72.3296L71.1896 49.36C71.0963 49.5733 70.9563 49.7333 70.7696 49.84C70.5963 49.9467 70.4163 50 70.2296 50ZM73.0296 44.84H78.8096L75.9496 37.72L73.0296 44.84ZM89.8721 50.2C89.0188 50.2 88.2054 50.0667 87.4321 49.8C86.6588 49.5333 85.9854 49.16 85.4121 48.68C84.8388 48.2 84.4188 47.6467 84.1521 47.02C84.0188 46.74 84.0188 46.48 84.1521 46.24C84.2988 46 84.5388 45.8467 84.8721 45.78C85.1121 45.7267 85.3454 45.7667 85.5721 45.9C85.8121 46.02 85.9921 46.2067 86.1121 46.46C86.2721 46.7933 86.5321 47.1 86.8921 47.38C87.2654 47.66 87.7121 47.8867 88.2321 48.06C88.7521 48.2333 89.2988 48.32 89.8721 48.32C90.5121 48.32 91.0988 48.22 91.6321 48.02C92.1788 47.82 92.6188 47.5333 92.9521 47.16C93.2854 46.7733 93.4521 46.3 93.4521 45.74C93.4521 45.0333 93.1721 44.4 92.6121 43.84C92.0654 43.28 91.1588 42.9333 89.8921 42.8C88.2388 42.64 86.9388 42.1533 85.9921 41.34C85.0454 40.5267 84.5721 39.52 84.5721 38.32C84.5721 37.44 84.8188 36.6933 85.3121 36.08C85.8054 35.4667 86.4721 35 87.3121 34.68C88.1654 34.36 89.1121 34.2 90.1521 34.2C91.3654 34.2 92.3588 34.4467 93.1321 34.94C93.9054 35.4333 94.5454 36.0867 95.0521 36.9C95.2388 37.1933 95.3121 37.4733 95.2721 37.74C95.2454 37.9933 95.1188 38.1933 94.8921 38.34C94.6388 38.5 94.3654 38.5333 94.0721 38.44C93.7788 38.3467 93.5588 38.1733 93.4121 37.92C93.0788 37.3467 92.6454 36.9 92.1121 36.58C91.5921 36.26 90.9188 36.0933 90.0921 36.08C89.1054 36.0667 88.2788 36.2533 87.6121 36.64C86.9454 37.0133 86.6121 37.5933 86.6121 38.38C86.6121 38.78 86.7121 39.1667 86.9121 39.54C87.1254 39.9 87.5054 40.2133 88.0521 40.48C88.6121 40.7467 89.4121 40.9333 90.4521 41.04C92.0388 41.2 93.2721 41.6867 94.1521 42.5C95.0454 43.3 95.4921 44.36 95.4921 45.68C95.4921 46.44 95.3321 47.1 95.0121 47.66C94.7054 48.22 94.2854 48.6933 93.7521 49.08C93.2321 49.4533 92.6321 49.7333 91.9521 49.92C91.2854 50.1067 90.5921 50.2 89.8721 50.2ZM103.642 50.2C102.788 50.2 101.975 50.0667 101.202 49.8C100.428 49.5333 99.755 49.16 99.1816 48.68C98.6083 48.2 98.1883 47.6467 97.9216 47.02C97.7883 46.74 97.7883 46.48 97.9216 46.24C98.0683 46 98.3083 45.8467 98.6416 45.78C98.8816 45.7267 99.115 45.7667 99.3416 45.9C99.5816 46.02 99.7616 46.2067 99.8816 46.46C100.042 46.7933 100.302 47.1 100.662 47.38C101.035 47.66 101.482 47.8867 102.002 48.06C102.522 48.2333 103.068 48.32 103.642 48.32C104.282 48.32 104.868 48.22 105.402 48.02C105.948 47.82 106.388 47.5333 106.722 47.16C107.055 46.7733 107.222 46.3 107.222 45.74C107.222 45.0333 106.942 44.4 106.382 43.84C105.835 43.28 104.928 42.9333 103.662 42.8C102.008 42.64 100.708 42.1533 99.7616 41.34C98.815 40.5267 98.3416 39.52 98.3416 38.32C98.3416 37.44 98.5883 36.6933 99.0816 36.08C99.575 35.4667 100.242 35 101.082 34.68C101.935 34.36 102.882 34.2 103.922 34.2C105.135 34.2 106.128 34.4467 106.902 34.94C107.675 35.4333 108.315 36.0867 108.822 36.9C109.008 37.1933 109.082 37.4733 109.042 37.74C109.015 37.9933 108.888 38.1933 108.662 38.34C108.408 38.5 108.135 38.5333 107.842 38.44C107.548 38.3467 107.328 38.1733 107.182 37.92C106.848 37.3467 106.415 36.9 105.882 36.58C105.362 36.26 104.688 36.0933 103.862 36.08C102.875 36.0667 102.048 36.2533 101.382 36.64C100.715 37.0133 100.382 37.5933 100.382 38.38C100.382 38.78 100.482 39.1667 100.682 39.54C100.895 39.9 101.275 40.2133 101.822 40.48C102.382 40.7467 103.182 40.9333 104.222 41.04C105.808 41.2 107.042 41.6867 107.922 42.5C108.815 43.3 109.262 44.36 109.262 45.68C109.262 46.44 109.102 47.1 108.782 47.66C108.475 48.22 108.055 48.6933 107.522 49.08C107.002 49.4533 106.402 49.7333 105.722 49.92C105.055 50.1067 104.362 50.2 103.642 50.2ZM113.491 50C113.198 50 112.951 49.9 112.751 49.7C112.551 49.5 112.451 49.2533 112.451 48.96V35.42C112.451 35.1133 112.551 34.8667 112.751 34.68C112.951 34.48 113.198 34.38 113.491 34.38C113.891 34.38 114.198 34.5667 114.411 34.94L120.351 46.84L126.131 34.94C126.345 34.5667 126.651 34.38 127.051 34.38C127.345 34.38 127.591 34.48 127.791 34.68C127.991 34.8667 128.091 35.1133 128.091 35.42V48.96C128.091 49.2533 127.985 49.5 127.771 49.7C127.571 49.9 127.331 50 127.051 50C126.758 50 126.511 49.9 126.311 49.7C126.111 49.5 126.011 49.2533 126.011 48.96V39.02L121.171 48.88C120.945 49.2267 120.645 49.4 120.271 49.4C119.831 49.4 119.511 49.1933 119.311 48.78L114.531 39.2V48.96C114.531 49.2533 114.431 49.5 114.231 49.7C114.031 49.9 113.785 50 113.491 50ZM139.32 50.2C138.146 50.2 137.073 50.0067 136.1 49.62C135.126 49.22 134.286 48.6667 133.58 47.96C132.886 47.24 132.346 46.3933 131.96 45.42C131.573 44.4333 131.38 43.3533 131.38 42.18C131.38 41.0067 131.573 39.9333 131.96 38.96C132.346 37.9867 132.886 37.1467 133.58 36.44C134.286 35.72 135.126 35.1667 136.1 34.78C137.073 34.38 138.146 34.18 139.32 34.18C140.493 34.18 141.56 34.38 142.52 34.78C143.493 35.1667 144.333 35.72 145.04 36.44C145.746 37.1467 146.293 37.9867 146.68 38.96C147.066 39.9333 147.26 41.0067 147.26 42.18C147.26 43.3533 147.066 44.4333 146.68 45.42C146.293 46.3933 145.746 47.24 145.04 47.96C144.333 48.6667 143.493 49.22 142.52 49.62C141.56 50.0067 140.493 50.2 139.32 50.2ZM139.32 48.32C140.48 48.32 141.506 48.0533 142.4 47.52C143.293 46.9733 143.993 46.24 144.5 45.32C145.006 44.3867 145.26 43.34 145.26 42.18C145.26 41.02 145.006 39.98 144.5 39.06C143.993 38.1267 143.293 37.3933 142.4 36.86C141.506 36.3267 140.48 36.06 139.32 36.06C138.16 36.06 137.133 36.3267 136.24 36.86C135.346 37.3933 134.646 38.1267 134.14 39.06C133.633 39.98 133.38 41.02 133.38 42.18C133.38 43.34 133.633 44.3867 134.14 45.32C134.646 46.24 135.346 46.9733 136.24 47.52C137.133 48.0533 138.16 48.32 139.32 48.32ZM151.558 50C151.264 50 151.018 49.9 150.818 49.7C150.618 49.5 150.518 49.2533 150.518 48.96V35.42C150.518 35.1133 150.618 34.8667 150.818 34.68C151.018 34.48 151.264 34.38 151.558 34.38H155.158C156.158 34.38 157.044 34.5933 157.818 35.02C158.591 35.4333 159.191 36.0067 159.618 36.74C160.058 37.4733 160.278 38.3267 160.278 39.3C160.278 40.26 160.038 41.1067 159.558 41.84C159.078 42.56 158.424 43.1067 157.598 43.48L160.658 48.4C160.898 48.7867 160.931 49.1533 160.758 49.5C160.584 49.8333 160.284 50 159.858 50C159.471 50 159.171 49.8333 158.958 49.5L155.518 43.98C155.398 43.98 155.278 43.98 155.158 43.98H152.598V48.96C152.598 49.2533 152.498 49.5 152.298 49.7C152.111 49.9 151.864 50 151.558 50ZM152.598 42.06H155.158C156.064 42.06 156.811 41.8067 157.398 41.3C157.984 40.78 158.278 40.1133 158.278 39.3C158.278 38.42 157.984 37.7 157.398 37.14C156.811 36.58 156.064 36.3 155.158 36.3H152.598V42.06ZM164.194 50C163.901 50 163.654 49.9 163.454 49.7C163.254 49.5 163.154 49.2533 163.154 48.96V35.42C163.154 35.1133 163.254 34.8667 163.454 34.68C163.654 34.48 163.901 34.38 164.194 34.38H168.194C169.194 34.38 170.081 34.6 170.854 35.04C171.628 35.48 172.228 36.0933 172.654 36.88C173.094 37.6533 173.314 38.5467 173.314 39.56C173.314 40.5333 173.094 41.4 172.654 42.16C172.228 42.92 171.628 43.5133 170.854 43.94C170.081 44.3667 169.194 44.58 168.194 44.58H165.234V48.96C165.234 49.2533 165.134 49.5 164.934 49.7C164.748 49.9 164.501 50 164.194 50ZM165.234 42.66H168.194C169.101 42.66 169.848 42.3733 170.434 41.8C171.021 41.2133 171.314 40.4667 171.314 39.56C171.314 38.92 171.181 38.36 170.914 37.88C170.648 37.3867 170.281 37 169.814 36.72C169.348 36.44 168.808 36.3 168.194 36.3H165.234V42.66ZM176.655 50C176.362 50 176.115 49.9 175.915 49.7C175.715 49.5 175.615 49.2533 175.615 48.96V35.42C175.615 35.1133 175.715 34.8667 175.915 34.68C176.115 34.48 176.362 34.38 176.655 34.38C176.962 34.38 177.209 34.48 177.395 34.68C177.595 34.8667 177.695 35.1133 177.695 35.42V41.16H186.975V35.42C186.975 35.1133 187.075 34.8667 187.275 34.68C187.475 34.48 187.722 34.38 188.015 34.38C188.322 34.38 188.569 34.48 188.755 34.68C188.942 34.8667 189.035 35.1133 189.035 35.42V48.96C189.035 49.2533 188.942 49.5 188.755 49.7C188.569 49.9 188.322 50 188.015 50C187.722 50 187.475 49.9 187.275 49.7C187.075 49.5 186.975 49.2533 186.975 48.96V43H177.695V48.96C177.695 49.2533 177.595 49.5 177.395 49.7C177.209 49.9 176.962 50 176.655 50ZM194.077 50C193.784 50 193.537 49.9 193.337 49.7C193.137 49.5 193.037 49.2533 193.037 48.96V35.42C193.037 35.1133 193.137 34.8667 193.337 34.68C193.537 34.48 193.784 34.38 194.077 34.38C194.384 34.38 194.63 34.48 194.817 34.68C195.017 34.8667 195.117 35.1133 195.117 35.42V48.96C195.117 49.2533 195.017 49.5 194.817 49.7C194.63 49.9 194.384 50 194.077 50ZM204.071 50.2C203.218 50.2 202.405 50.0667 201.631 49.8C200.858 49.5333 200.185 49.16 199.611 48.68C199.038 48.2 198.618 47.6467 198.351 47.02C198.218 46.74 198.218 46.48 198.351 46.24C198.498 46 198.738 45.8467 199.071 45.78C199.311 45.7267 199.545 45.7667 199.771 45.9C200.011 46.02 200.191 46.2067 200.311 46.46C200.471 46.7933 200.731 47.1 201.091 47.38C201.465 47.66 201.911 47.8867 202.431 48.06C202.951 48.2333 203.498 48.32 204.071 48.32C204.711 48.32 205.298 48.22 205.831 48.02C206.378 47.82 206.818 47.5333 207.151 47.16C207.485 46.7733 207.651 46.3 207.651 45.74C207.651 45.0333 207.371 44.4 206.811 43.84C206.265 43.28 205.358 42.9333 204.091 42.8C202.438 42.64 201.138 42.1533 200.191 41.34C199.245 40.5267 198.771 39.52 198.771 38.32C198.771 37.44 199.018 36.6933 199.511 36.08C200.005 35.4667 200.671 35 201.511 34.68C202.365 34.36 203.311 34.2 204.351 34.2C205.565 34.2 206.558 34.4467 207.331 34.94C208.105 35.4333 208.745 36.0867 209.251 36.9C209.438 37.1933 209.511 37.4733 209.471 37.74C209.445 37.9933 209.318 38.1933 209.091 38.34C208.838 38.5 208.565 38.5333 208.271 38.44C207.978 38.3467 207.758 38.1733 207.611 37.92C207.278 37.3467 206.845 36.9 206.311 36.58C205.791 36.26 205.118 36.0933 204.291 36.08C203.305 36.0667 202.478 36.2533 201.811 36.64C201.145 37.0133 200.811 37.5933 200.811 38.38C200.811 38.78 200.911 39.1667 201.111 39.54C201.325 39.9 201.705 40.2133 202.251 40.48C202.811 40.7467 203.611 40.9333 204.651 41.04C206.238 41.2 207.471 41.6867 208.351 42.5C209.245 43.3 209.691 44.36 209.691 45.68C209.691 46.44 209.531 47.1 209.211 47.66C208.905 48.22 208.485 48.6933 207.951 49.08C207.431 49.4533 206.831 49.7333 206.151 49.92C205.485 50.1067 204.791 50.2 204.071 50.2ZM213.921 50C213.628 50 213.381 49.9 213.181 49.7C212.981 49.5 212.881 49.2533 212.881 48.96V35.42C212.881 35.1133 212.981 34.8667 213.181 34.68C213.381 34.48 213.628 34.38 213.921 34.38C214.321 34.38 214.628 34.5667 214.841 34.94L220.781 46.84L226.561 34.94C226.774 34.5667 227.081 34.38 227.481 34.38C227.774 34.38 228.021 34.48 228.221 34.68C228.421 34.8667 228.521 35.1133 228.521 35.42V48.96C228.521 49.2533 228.414 49.5 228.201 49.7C228.001 49.9 227.761 50 227.481 50C227.188 50 226.941 49.9 226.741 49.7C226.541 49.5 226.441 49.2533 226.441 48.96V39.02L221.601 48.88C221.374 49.2267 221.074 49.4 220.701 49.4C220.261 49.4 219.941 49.1933 219.741 48.78L214.961 39.2V48.96C214.961 49.2533 214.861 49.5 214.661 49.7C214.461 49.9 214.214 50 213.921 50Z" fill="black"/>
</g>
<defs>
<filter id="filter0_d" x="0" y="0" width="271" height="89" filterUnits="userSpaceOnUse" color-interpolation-filters="sRGB">
<feFlood flood-opacity="0" result="BackgroundImageFix"/>
<feColorMatrix in="SourceAlpha" type="matrix" values="0 0 0 0 0 0 0 0 0 0 0 0 0 0 0 0 0 0 127 0"/>
<feMorphology radius="2" operator="dilate" in="SourceAlpha" result="effect1_dropShadow"/>
<feOffset/>
<feGaussianBlur stdDeviation="5.5"/>
<feColorMatrix type="matrix" values="0 0 0 0 0 0 0 0 0 0 0 0 0 0 0 0 0 0 0.19 0"/>
<feBlend mode="normal" in2="BackgroundImageFix" result="effect1_dropShadow"/>
<feBlend mode="normal" in="SourceGraphic" in2="effect1_dropShadow" result="shape"/>
</filter>
<filter id="filter1_d" x="37.7507" y="30.18" width="194.77" height="24.02" filterUnits="userSpaceOnUse" color-interpolation-filters="sRGB">
<feFlood flood-opacity="0" result="BackgroundImageFix"/>
<feColorMatrix in="SourceAlpha" type="matrix" values="0 0 0 0 0 0 0 0 0 0 0 0 0 0 0 0 0 0 127 0"/>
<feOffset/>
<feGaussianBlur stdDeviation="2"/>
<feColorMatrix type="matrix" values="0 0 0 0 0 0 0 0 0 0 0 0 0 0 0 0 0 0 0.26 0"/>
<feBlend mode="normal" in2="BackgroundImageFix" result="effect1_dropShadow"/>
<feBlend mode="normal" in="SourceGraphic" in2="effect1_dropShadow" result="shape"/>
</filter>
</defs>
</svg>
