<svg width="58" height="58" viewBox="0 0 58 58" fill="none" xmlns="http://www.w3.org/2000/svg">
<g filter="url(#filter0_d)">
<path d="M53.0067 0.97108C52.3172 0.278414 51.4843 0 50.5133 0H16.7546C14.7503 0 12.9797 1.42422 12.9797 3.42548V6.50048C12.9797 8.50175 14.7503 10.3692 16.7546 10.3692H36.6055L5.06132 41.7466C4.37749 42.4299 4.00052 43.2812 4 44.2534C4 45.2255 4.37749 46.1063 5.06132 46.7897L7.23901 48.948C7.92232 49.6314 8.83514 50 9.80871 50C10.7823 50 11.5959 49.6205 12.2798 48.9371L43.6147 17.5479V37.1359C43.6147 39.1377 45.443 40.9585 47.4467 40.9585H50.5273C52.5306 40.9585 54 39.1377 54 37.1359V3.43741C53.9995 2.46892 53.6983 1.65752 53.0067 0.97108Z" fill="black"/>
</g>
<defs>
<filter id="filter0_d" x="0" y="0" width="58" height="58" filterUnits="userSpaceOnUse" color-interpolation-filters="sRGB">
<feFlood flood-opacity="0" result="BackgroundImageFix"/>
<feColorMatrix in="SourceAlpha" type="matrix" values="0 0 0 0 0 0 0 0 0 0 0 0 0 0 0 0 0 0 127 0"/>
<feOffset dy="4"/>
<feGaussianBlur stdDeviation="2"/>
<feColorMatrix type="matrix" values="0 0 0 0 0 0 0 0 0 0 0 0 0 0 0 0 0 0 0.25 0"/>
<feBlend mode="normal" in2="BackgroundImageFix" result="effect1_dropShadow"/>
<feBlend mode="normal" in="SourceGraphic" in2="effect1_dropShadow" result="shape"/>
</filter>
</defs>
</svg>
